<svg xmlns="http://www.w3.org/2000/svg" width="700" height="1000" viewBox="0 0 700 1000">
  <defs>
    <style>
      .cls-1 {
        fill: #595859;
        fill-rule: evenodd;
      }
    </style>
  </defs>
  <path id="Forma_1" data-name="Forma 1" class="cls-1" d="M190.005,467.991v-205.9H432.05v205.9H190.005Zm11.712-22.576,69.5-80.377-69.5-80.369V445.415Zm7.813-169.782,88.224,102.048c9.762,11.292,16.787,11.292,26.549,0l88.235-102.048H209.53ZM412.538,454.444l-69.5-80.369c-13.662,15.8-22.637,26.638-32.011,26.638s-18.35-10.836-32.013-26.638L209.53,454.444H412.538Zm-61.685-89.406,69.486,80.377V284.669Z"/>
  <path id="Forma_2" data-name="Forma 2" class="cls-1" d="M218,447.991V244.085H416.041V447.991H218Zm9.583-22.357,56.863-79.6-56.863-79.589V425.634ZM233.979,257.5l72.183,101.057c7.988,11.182,13.735,11.182,21.722,0L400.077,257.5h-166.1Zm166.1,177.075-56.863-79.589c-11.177,15.649-18.521,26.379-26.191,26.379s-15.013-10.73-26.191-26.379l-56.853,79.589h166.1Zm-50.47-88.538,56.852,79.6V266.449Z"/>
</svg>
